<?xml version="1.0" encoding="utf-8"?>
<!-- Generator: Adobe Illustrator 16.0.0, SVG Export Plug-In . SVG Version: 6.00 Build 0)  -->
<!DOCTYPE svg PUBLIC "-//W3C//DTD SVG 1.1//EN" "http://www.w3.org/Graphics/SVG/1.1/DTD/svg11.dtd">
<svg version="1.1" id="Layer_3" xmlns="http://www.w3.org/2000/svg" xmlns:xlink="http://www.w3.org/1999/xlink" x="0px" y="0px"
	 width="841.89px" height="595.28px" viewBox="0 0 841.89 595.28" enable-background="new 0 0 841.89 595.28" xml:space="preserve">
<g>
	<defs>
		<rect id="SVGID_1_" width="841.89" height="594.349"/>
	</defs>
	<clipPath id="SVGID_2_">
		<use xlink:href="#SVGID_1_"  overflow="visible"/>
	</clipPath>
	<g clip-path="url(#SVGID_2_)">
		<path opacity="0.5" fill="#FCB538" d="M508.754,673.987l0.864,0.326l0.116,0.906l5.199,41.251h18.923v-49.815l10.048-8.313
			l-38.043-10.464l36.432-15.026l-37.857-9.61l22.003-20.316l1.461-1.521h-69.217v1.521
			C459.18,612.029,463.916,657.062,508.754,673.987"/>
		<path opacity="0.5" fill="#FCB538" d="M523.678,618.609l48.469,11.833l-37.476,15.537l29.424,8.312l-20.478,16.812v45.362h17.27
			l5.982-42.454l0.779-0.333c44.801-18.851,47.921-62.065,48.087-70.747v-1.528h-74.511l-1.276,1.528L523.678,618.609z"/>
		<path opacity="0.5" fill="#FCB538" d="M638.157,601.404H626.48v1.528h-0.038c-0.936,31.843-14.689,51.527-26.152,62.473
			c-10.852,10.365-21.506,14.964-24.626,16.16l-6.428,44.653h-62.355l-6.09-45.002c-47.611-18.261-52.621-68.36-53.146-78.125
			c-0.032-0.829-0.066-1.537-0.066-1.705l-14.967,0.018c-22.077,0-39.965,17.972-39.965,40.145v147.519
			c0,22.178,17.888,40.151,39.965,40.151h205.546c22.069,0,39.961-17.974,39.961-40.151V641.549
			C678.118,619.376,660.227,601.404,638.157,601.404 M507.861,764.317h61.743v9.418h-61.743V764.317z M549.65,790.121h-23.165
			v-9.425h23.165V790.121z M569.604,757.354h-61.743v-9.088h61.743V757.354z M507.699,733.749h1.52h58.696h1.529v7.564h-61.745
			V733.749z"/>
		<rect x="530.753" y="433.252" opacity="0.5" fill="#FFC638" width="9.255" height="79.307"/>
		<polygon opacity="0.5" fill="#FFC638" points="389.015,530.992 384.889,539.257 449.545,571.574 453.673,563.312 		"/>
		<polygon opacity="0.5" fill="#FFC638" points="418.107,485.095 411.973,492.008 469.992,543.561 476.137,536.647 		"/>
		<polygon opacity="0.5" fill="#FFC638" points="474.625,449.041 474.009,447.646 465.521,451.308 495.539,520.804 496.158,522.2 
			504.647,518.533 		"/>
		
			<rect x="615.336" y="546.665" transform="matrix(0.8945 -0.4471 0.4471 0.8945 -177.7358 349.4412)" opacity="0.5" fill="#FFC638" width="72.29" height="9.236"/>
		<polygon opacity="0.5" fill="#FFC638" points="652.655,485.095 594.626,536.647 600.783,543.561 658.791,492.008 		"/>
		<polygon opacity="0.5" fill="#FFC638" points="596.751,447.642 566.122,518.533 574.609,522.2 605.244,451.305 		"/>
		<path opacity="0.5" fill="#FCB538" d="M535.41,597.469c-0.028-0.008-0.052-0.004-0.071,0.005h0.087
			C535.42,597.474,535.41,597.469,535.41,597.469"/>
		<path opacity="0.5" fill="#FCB538" d="M535.42,597.474C535.426,597.479,535.426,597.479,535.42,597.474"/>
		<path opacity="0.5" fill="#FCB538" d="M535.41,594.356c-0.028-0.012-0.052-0.012-0.071,0.007h0.087
			C535.42,594.359,535.41,594.359,535.41,594.356"/>
		<path opacity="0.5" fill="#FCB538" d="M535.42,594.359C535.426,594.368,535.426,594.368,535.42,594.359"/>
		<path opacity="0.5" fill="#FCB538" d="M535.41,598.126c-0.028-0.007-0.052-0.007-0.071,0.014h0.087
			C535.42,598.133,535.41,598.132,535.41,598.126"/>
		<path opacity="0.5" fill="#FCB538" d="M535.42,598.133C535.426,598.14,535.426,598.14,535.42,598.133"/>
	</g>
	<path opacity="0.5" clip-path="url(#SVGID_2_)" fill="#B22C1B" d="M702.173,443.768h0.083c0,0,0-0.008-0.01-0.008
		C702.217,443.75,702.194,443.75,702.173,443.768z"/>
	<path opacity="0.5" clip-path="url(#SVGID_2_)" fill="#B22C1B" d="M816.347,279.32c1.051-6.176,1.553-12.205,1.543-18.063
		c-0.007-29.623-13.162-54.908-37.516-70.971c-17.538-11.564-39.116-17.095-60.321-16.654v0.004
		c-19.394,0.554-38.772,6.096-54.78,16.65c-24.354,16.063-37.51,41.348-37.522,70.971c-0.01,5.858,0.498,11.887,1.553,18.063
		c7.792,46.127,30.521,73.542,49.761,89.065c-10.285-1.932-20.842-2.27-27.097,2.154c-2.883,2.043-6.232,6.016-5.852,13.369
		c0.352,6.841,3.758,10.32,6.544,12.033c10.699,6.547,31.267-0.684,50.591-9.192c-4.731,9.477-16.82,33.648-16.82,33.648
		l22.566,0.01c0.529,5.498,3.004,26.218,24.32,42.321c13.156,9.938,67.034,43.929,63.688,92.843
		c-3.28,48.114-67.795,98.653-168.38,131.925l-4.565,1.527h32.317c4.995-1.42,9.862-2.844,14.606-4.273
		c27.126-11.59,86.45-39.969,116.014-77.658l0.67-0.872c16.377-21.308,23.085-42.959,19.951-64.336
		c-3.944-26.868-23.801-52.938-57.83-79.155c-11.833-9.116-26.558-16.913-30.832-42.316h1.097l39.157-0.015
		c0,0-12.083-24.172-16.82-33.648c19.335,8.509,39.897,15.739,50.589,9.192c2.79-1.713,6.196-5.192,6.559-12.033
		c0.376-7.354-2.972-11.326-5.863-13.369c-6.255-4.424-16.802-4.086-27.092-2.154C785.823,352.861,808.554,325.447,816.347,279.32z
		 M656.962,388.912c-1.053-0.643-2.453-1.892-2.639-5.42c-0.203-3.922,1.266-5.432,2.392-6.222c6.502-4.608,24.377-0.78,38.529,3.97
		C683.212,386.33,664.164,393.329,656.962,388.912z M788.929,377.271c1.134,0.79,2.591,2.3,2.395,6.222
		c-0.189,3.528-1.59,4.777-2.639,5.42c-7.195,4.417-26.257-2.582-38.279-7.672C764.558,376.49,782.427,372.662,788.929,377.271z
		 M737.858,377.118l-8.466,4.409l1.488,2.436c0,0,9.409,18.835,13.685,27.368c-5.249,0.003-15.106,0.003-24.513,0.01
		c-7.546-0.007-14.74-0.01-18.972-0.01c4.28-8.533,13.678-27.368,13.678-27.368l1.488-2.436l-8.457-4.409
		c-6.972-4.032-56.386-21.366-69.569-99.314c-0.986-5.809-1.475-11.458-1.475-16.915c0.008-26.565,11.59-48.575,33.508-63.042
		c14.572-9.612,32.183-14.669,49.799-15.213v-0.015c19.431-0.445,39.242,4.609,55.334,15.228
		c21.921,14.466,33.503,36.476,33.511,63.042c0,5.456-0.489,11.106-1.469,16.915C794.241,355.752,744.828,373.086,737.858,377.118z"
		/>
	<g clip-path="url(#SVGID_2_)">
		<path opacity="0.5" fill="#4C83C3" d="M650.56,57.413c-13.873,0-25.149,9.355-25.149,20.864c0,11.495,11.276,20.846,25.149,20.846
			c13.854,0,25.133-9.352,25.133-20.846C675.692,66.768,664.413,57.413,650.56,57.413 M667.674,78.276
			c0,7.067-7.682,12.831-17.114,12.831c-9.45,0-17.128-5.764-17.128-12.831c0-7.08,7.678-12.836,17.128-12.836
			C659.992,65.44,667.674,71.196,667.674,78.276"/>
		<path opacity="0.5" fill="#4C83C3" d="M600.674,77.633c-12.066,0-21.871,8.794-21.871,19.6c0,10.424,9.188,17.974,21.871,17.974
			c12.667,0,21.867-7.55,21.867-17.974C622.541,86.427,612.731,77.633,600.674,77.633 M614.515,97.232
			c0,6.84-7.17,9.966-13.841,9.966c-6.68,0-13.855-3.125-13.855-9.966c0-6.38,6.214-11.567,13.855-11.567
			C608.316,85.665,614.515,90.852,614.515,97.232"/>
		<path opacity="0.5" fill="#4C83C3" d="M555.612,94.782c-11.088,0-17.982,5.139-17.982,13.428c0,8.295,6.895,13.437,17.982,13.437
			c11.109,0,17.986-5.142,17.986-13.437C573.599,99.921,566.722,94.782,555.612,94.782 M565.58,108.21
			c0,4.477-5.412,5.418-9.968,5.418c-4.537,0-9.96-0.942-9.96-5.418c0-4.469,5.423-5.41,9.96-5.41
			C560.168,102.801,565.58,103.742,565.58,108.21"/>
		<path opacity="0.5" fill="#4C83C3" d="M802.844-54.32c-0.786-13.381-9.767-25.862-26.613-37.111
			c-0.268-0.174-0.472-0.348-0.746-0.521l-0.842-0.559v0.352l-1.605-1.052l-0.071-0.324c-12.263-8.976-64.282-43.129-103.025-7.581
			c-1.657-3.437-5.648-9.86-13.295-12.342c-7.885-2.575-17.339-0.174-28.089,7.107c-2.09-4.37-8.396-15.337-20.864-20.42
			c-10.465-4.264-22.662-3.269-36.114,2.929c-0.66,0.237-16.299,5.991-21.824,19.938c-3.103,7.801-2.376,16.55,2.126,26.02
			c-6.16,3.27-29.848,16.95-29.143,33.502c0.45,10.381,10.39,19.572,29.563,27.335c-3.522,5.519-13.725,23.541-8.293,39.124
			c0,0,0.625,1.579,0.836,2.105c0.011,0.026,0.193,0.512,0.465,1.182c1.598,3.817,8.409,15.999,30.17,13.234
			c2.729,4.498,15.272,22.871,37.364,22.871h0.021c0.787,0.06,19.554,1.647,43.097-17.575C661.979,47,693.999,62.83,722,62.83
			c2.584,0,5.144-0.147,7.623-0.433c0.694,0.009,44.789,0.347,63.723-42.443c0.125-0.227,11.647-23.636-4.947-41.75
			C792.302-25.533,803.818-37.955,802.844-54.32z M785.54,13.226c-0.113,0.402-12.012,39.96-60.464,39.96h-0.399
			c-0.275,0.048-29.8,1.534-69.054-20.704l-1.074-0.601l-0.854,0.889c-0.188,0.206-19.171,19.701-40.821,19.254
			c-0.274,0.049-19.29,1.454-31.663-23.508l-0.625-1.257l-1.323,0.467c-0.16,0.05-14.439,4.776-22.036-2.361
			c-0.506-0.473-0.974-1.004-1.42-1.583h0.011c-0.235-0.322-0.541-0.506-0.76-0.844l-0.46-0.743l-0.005-0.01h-0.03
			c-1.651-2.838-7.229-16.151,12.219-42.658l1.332-1.814l-2.158-0.64c-8.841-2.636-32.065-11.723-33.425-22.218
			c-0.036-0.125-2.609-13.012,32.195-28.109l2.096-0.909l-1.568-1.643c-0.626-0.657-15.188-16.226-2.348-30.668
			c0.089-0.116,9.407-11.34,33.962-13.333c0.775,0.002,19.116,0.432,26.356,27.381l0.723,2.696l1.94-1.987
			c0.151-0.154,15.526-15.702,26.237-13.478c0.399,0.054,9.998,1.36,12.883,20.268l0.674,4.388l2.261-3.819
			c0.111-0.191,11.233-18.567,34.241-22.787c20.807-3.83,44.658,4.773,70.855,25.535v0.143l0.023,0.01l0.771,0.456
			c0.027,0.01,0.311,0.184,0.811,0.507c0.383,0.249,0.981,0.659,1.588,1.077c4.783,3.401,15.394,12.235,16.624,24.76
			c1.009,10.332-4.594,20.967-16.624,31.659c-0.154,0.122-0.28,0.269-0.443,0.4l-1.145,1.005l-0.793,0.699l0.793,0.31l1.588,0.641
			l0.02,0.007C776.423-19.867,793.825-12.517,785.54,13.226z"/>
		<line fill="#4C83C3" x1="543.009" y1="18.371" x2="546.264" y2="27.306"/>
	</g>
</g>
</svg>
