<?xml version="1.0" encoding="utf-8"?>
<!-- Generator: Adobe Illustrator 16.0.0, SVG Export Plug-In . SVG Version: 6.00 Build 0)  -->
<!DOCTYPE svg PUBLIC "-//W3C//DTD SVG 1.1//EN" "http://www.w3.org/Graphics/SVG/1.1/DTD/svg11.dtd">
<svg version="1.1" id="Layer_3" xmlns="http://www.w3.org/2000/svg" xmlns:xlink="http://www.w3.org/1999/xlink" x="0px" y="0px"
	 width="1280px" height="720px" viewBox="0 0 1280 720" enable-background="new 0 0 1280 720" xml:space="preserve">
<rect fill="#FFFFFF" width="1279" height="717.947"/>
<g>
	<defs>
		<rect id="SVGID_1_" width="1279" height="717.947"/>
	</defs>
	<clipPath id="SVGID_2_">
		<use xlink:href="#SVGID_1_"  overflow="visible"/>
	</clipPath>
	<path clip-path="url(#SVGID_2_)" fill="#FCB639" d="M1207.482,279.922c-1.876-1.087-4.209-0.56-5.215,1.174
		c-1.005,1.734-0.305,4.02,1.572,5.108c1.867,1.083,4.205,0.559,5.211-1.176C1210.055,283.294,1209.348,281.005,1207.482,279.922"/>
	<path clip-path="url(#SVGID_2_)" fill="#FCB639" d="M1221.044,265.087c1.131-1.951-0.023-4.733-2.57-6.21
		c-2.553-1.48-5.539-1.098-6.669,0.852c-1.132,1.953,0.018,4.735,2.57,6.215C1216.922,267.422,1219.914,267.039,1221.044,265.087"/>
	<path clip-path="url(#SVGID_2_)" fill="#EB987B" d="M1111.575,600.262c-7.067,0-10.669-4.404-13.509-9.165
		c-5.265-8.823-5.896-20.088-5.919-20.564c-0.034-0.564,0.173-1.111,0.568-1.508c0.369-0.37,0.856-0.573,1.372-0.573l0.121,0.003
		c4.68,0.276,12.554,1.072,18.356,1.723c0.596,0.072,1.137,0.424,1.444,0.942c0.315,0.531,0.369,1.185,0.144,1.748
		c-2.055,5.241-1.279,19.934,1.926,23.921c0.45,0.556,0.568,1.308,0.311,1.966c-0.252,0.665-0.831,1.14-1.517,1.244
		C1113.741,600.175,1112.661,600.262,1111.575,600.262z M1097.029,572.62c-0.188,0-0.368,0.079-0.497,0.214
		c-0.146,0.151-0.21,0.359-0.179,0.568c0.493,3.52,1.805,10.236,5.023,15.636c2.89,4.828,5.396,6.851,8.94,7.214
		c0.005,0,0.008,0,0.014,0c0.271,0,0.468-0.096,0.595-0.258c0.146-0.185,0.186-0.427,0.108-0.648
		c-2.189-6.237-2.32-15.354-1.33-20.767c0.032-0.187-0.014-0.38-0.124-0.53c-0.117-0.154-0.29-0.253-0.476-0.272
		c-2.62-0.282-7.663-0.808-12.021-1.152L1097.029,572.62z"/>
	<path clip-path="url(#SVGID_2_)" fill="#EB987B" d="M1129.91,592.762c-0.16,0-0.334-0.024-0.504-0.072
		c-1.541-0.454-9.35-2.88-11.241-5.882c-1.288-2.06-1.343-5.1-1.396-8.04l-0.003-0.158c-0.023-1.54-0.048-3.113-0.285-4.08
		c-0.266-1.057,0.367-2.132,1.408-2.395c0.157-0.04,0.316-0.061,0.479-0.061c0.108,0,0.215,0.01,0.316,0.027
		c0.047,0.002,0.086,0.002,0.12,0.002c0.091,0,0.144-0.006,0.177-0.011c0.85-0.12,1.832-0.18,2.982-0.18
		c2.092,0,4.435,0.198,6.7,0.389c1.459,0.125,2.802,0.233,4.037,0.297c0.517,0.028,1.019,0.287,1.378,0.709
		c0.343,0.414,0.506,0.965,0.442,1.506c-0.681,5.676-1.356,9.47-2.709,16.354c-0.099,0.535-0.415,0.998-0.892,1.306
		C1130.623,592.656,1130.251,592.762,1129.91,592.762z M1122.029,575.86c-0.263,0-0.521,0.004-0.771,0.012
		c-0.179,0.005-0.354,0.084-0.479,0.217c-0.124,0.136-0.189,0.311-0.183,0.493c0.026,0.664,0.043,1.345,0.051,2.056
		c0.041,2.686,0.129,4.99,0.786,6.037c0.794,1.062,4.292,2.569,6.235,3.296c0.08,0.028,0.159,0.042,0.241,0.042
		c0.117,0,0.233-0.03,0.335-0.088c0.174-0.096,0.298-0.268,0.336-0.466c0.828-4.329,1.299-7.129,1.733-10.333
		c0.023-0.188-0.026-0.371-0.143-0.518c-0.118-0.147-0.291-0.239-0.476-0.256c0,0-1.003-0.078-1.25-0.103l-0.591-0.049
		C1125.869,576.034,1123.814,575.86,1122.029,575.86z"/>
	<path clip-path="url(#SVGID_2_)" fill="#EB987B" d="M1106.396,497.734c-0.061,0-0.116-0.006-0.173-0.015l-0.998-0.073
		c-7.782-0.648-11.463-1.356-17.098-11.344c-1.964-3.494-4.342-7.258-6.812-11.128l-0.107-0.17
		c-5.797-9.146-10.804-17.048-11.01-22.396c-0.19-4.769,0.899-8.326,3.332-10.878c2.818-2.981,7.191-4.369,13.759-4.369l5.898-0.008
		c21.179,0,31.954,0.774,36.033,2.592c5.49,2.447,9.044,7.755,10.276,15.352c1.524,9.405,1.383,16.927,0.971,28.195
		c-0.403,11.164-8.552,13.344-16.469,14.006l-17.58,0.236H1106.396z M1101.473,449.976c-3.413,0-6.62,0.269-9.035,0.755
		c-2.548,0.501-4.221,2.438-4.187,3.937c0.028,1.557,1.998,2.786,5.271,3.287c5.932,0.913,12.167,1.436,17.106,1.436
		c8.171,0,11.005-1.415,11.362-2.162c0.161-0.953-0.058-1.684-0.661-2.393C1118.886,451.929,1110.907,449.976,1101.473,449.976z"/>
	<path clip-path="url(#SVGID_2_)" fill="#EB987B" d="M1089.92,504.288c-1.273-0.648-2.829-0.138-3.475,1.153
		c-0.642,1.293-0.132,2.874,1.145,3.528c11.364,5.835,25.022,8.757,39.154,8.757c14.081,0,28.631-2.903,41.88-8.687
		c16.696-7.295,28.186-18.001,31.524-29.388c0.409-1.396-0.374-2.854-1.734-3.262c-1.379-0.42-2.818,0.378-3.217,1.769
		c-2.903,9.879-13.341,19.38-28.62,26.059C1147.446,512.577,1115.902,517.61,1089.92,504.288"/>
	<path clip-path="url(#SVGID_2_)" fill="#EB987B" d="M1130.185,425.04c3.261,0,5.908-2.862,5.908-6.384
		c0-3.533-2.647-6.387-5.908-6.387s-5.916,2.854-5.916,6.387C1124.269,422.177,1126.924,425.04,1130.185,425.04"/>
	<path clip-path="url(#SVGID_2_)" fill="#EB987B" d="M1176.486,425.971c2.568,0,4.662-2.255,4.662-5.033
		c0-2.781-2.094-5.037-4.662-5.037s-4.657,2.256-4.657,5.037C1171.829,423.716,1173.917,425.971,1176.486,425.971"/>
	<path clip-path="url(#SVGID_2_)" fill="#EB987B" d="M1196.48,723.452c-6.79-26.01-10.377-48.679-11.627-73.469
		c-0.011-0.248-0.159-0.47-0.387-0.577c-0.088-0.043-0.188-0.065-0.291-0.065c-0.143,0-0.279,0.044-0.396,0.126
		c-8.095,5.88-16.491,10.659-22.465,12.792c-4.893,1.739-10.369,3.02-15.839,3.702c-0.188,0.022-0.361,0.125-0.472,0.285
		c-0.108,0.151-0.148,0.348-0.108,0.534c2.153,9.676,10.586,16.235,17.759,19.146c0.079,0.031,0.168,0.049,0.255,0.049
		c1.562-0.176,2.705-0.258,3.683-0.258c1.79,0,7.238,0,8.784,6.225c0.48,1.929,0.097,3.775-1.111,5.341
		c-4.896,6.379-23.804,7.719-38.802,7.719c-5.128,0-31.009-0.434-36.875-8.983c-1.34-1.943-1.598-4.188-0.747-6.495
		c1.312-3.603,3.74-5.354,7.428-5.354c0.978,0,2.105,0.117,3.547,0.368c0.053,0.002,0.097,0.005,0.133,0.005
		c0.084,0,0.127-0.009,0.167-0.021c5.661-1.57,15.492-6.031,17.728-18.264c0.062-0.361-0.169-0.707-0.526-0.786
		c-3.246-0.7-6.144-1.742-8.609-3.097c-5.587-3.08-9.158-7.702-10.614-13.74c-3.379-13.995,0.377-24.278,11.48-31.438
		c0.217-0.14,0.337-0.396,0.307-0.652c-0.026-0.251-0.202-0.475-0.447-0.561c-6.678-2.369-12.646-6.196-17.741-11.376
		c-1.76-1.802-3.47-3.81-5.078-5.968c-0.124-0.172-0.329-0.273-0.544-0.273c-1.383,0.189-2.531,0.279-3.603,0.279
		c-5.843,0-11.86-2.098-16.943-5.905c-3.59-2.698-6.515-6.15-8.458-9.981c-0.117-0.229-0.35-0.372-0.605-0.372
		c-0.397,0.055-0.624,0.281-0.672,0.571c-3.036,19.397-3.682,70.774,13.101,140.493h-3.885
		c-11.265-48.225-20.139-112.775-11.326-149.635c0.072-0.289,0.236-0.563,0.514-0.858c0.126-0.136,0.192-0.317,0.183-0.502
		c-0.47-8.298,2.454-13.099,4.99-15.665c2.967-3.01,7.144-4.685,11.758-4.719c0.373-0.002,0.677-0.308,0.675-0.684
		c-0.011-1.654,0.022-3.069,0.1-4.329c0.004-0.103-0.012-0.199-0.045-0.286c-0.127-0.334-0.21-0.644-0.253-0.946
		c-0.234-1.681,0.259-3.288,1.422-4.646c1.585-1.845,6.408-7.458,45.039-7.458c3.441,0,6.916,0.041,10.325,0.122
		c35.611,0.812,55.224,4.837,55.224,11.336c0,0.127-0.02,0.242-0.038,0.359c-0.025,0.173-0.04,0.266-0.049,0.361
		c-0.01,0.106,0.005,0.213,0.043,0.311l0.05,0.13c0.056,0.137,0.098,0.238,0.106,0.327c0.495,4.899-0.645,10.658-1.691,15.128
		c-0.08,0.344,0.122,0.696,0.461,0.803c5.196,1.585,9.267,4.556,11.771,8.588c0.115,0.185,0.312,0.303,0.529,0.319
		c0.001,0,0.003,0,0.003,0c0.25,0,0.438-0.088,0.567-0.24c2.488-3.014,5.571-4.604,8.919-4.604c0.745,0,1.503,0.08,2.259,0.241
		c6.143,1.301,10.698,7.345,11.079,14.698c0.601,11.531-3.164,23.556-11.186,35.738c-8.201,12.456-19.062,22.311-26.727,28.385
		c-0.195,0.152-0.29,0.4-0.248,0.646c1.078,25.972,4.771,49.774,11.964,77.078H1196.48z M1105.269,688.06
		c-1.874,0-2.984,0.436-3.856,2.817c-0.41,1.126-0.317,2.025,0.305,2.918c2.913,4.237,17.106,7.313,33.746,7.313
		c22.885,0,33.495-3.214,35.795-6.223c0.483-0.619,0.614-1.235,0.421-1.992c-0.524-2.13-1.489-3.286-5.087-3.286
		c-2.349,0-5.479,0.515-8.793,1.06c-5.259,0.86-11.802,1.933-19.497,1.933c-1.059,0-2.136-0.021-3.236-0.063
		c-9.502-0.377-16.705-1.98-21.966-3.151C1109.771,688.64,1107.17,688.06,1105.269,688.06z M1131.305,666.249
		c-0.329,0-0.61,0.234-0.669,0.559c-1.43,7.988-5.926,14.344-13.005,18.38c-0.244,0.14-0.378,0.419-0.335,0.696
		c0.047,0.277,0.261,0.502,0.534,0.559c4.281,0.881,10.125,1.928,17.38,2.212c0.996,0.036,1.974,0.055,2.936,0.055
		c6.123,0,11.402-0.686,16.195-1.429c0.281-0.046,0.501-0.251,0.562-0.526c0.059-0.277-0.055-0.558-0.291-0.713
		c-7.167-4.735-12.113-11.685-13.567-19.065c-0.061-0.316-0.342-0.547-0.666-0.547c-1.203,0.07-2.349,0.107-3.443,0.107
		c-1.821,0-3.693-0.097-5.562-0.285L1131.305,666.249z M1125.413,617.924c-0.104,0-0.202,0.021-0.295,0.066
		c-13.312,6.406-17.729,15.57-14.321,29.717c1.191,4.936,4.127,8.718,8.725,11.24c4.451,2.447,10.458,3.74,17.374,3.74
		c7.392,0,15.833-1.496,23.158-4.104c19.6-6.977,64.587-41.514,62.754-76.778c-0.318-6.234-4.288-10.298-8.046-11.089
		c-0.484-0.104-0.973-0.157-1.447-0.157c-3.037,0-5.782,2.056-7.729,5.79c-0.075,0.142-0.096,0.303-0.062,0.456
		c0.218,1.041,0.349,1.968,0.401,2.828c0.63,11.116-3.964,25.158-29.436,28.913c-1.446,0.22-2.652,0.322-3.795,0.322
		c-1.966,0-3.624-0.382-4.929-1.135c-0.099-0.059-0.217-0.091-0.339-0.091c-0.169,0-0.329,0.061-0.453,0.173
		c-8.15,7.212-15.76,10.053-29.075,10.854c-1.093,0.07-2.197,0.107-3.282,0.107c-2.964,0-6.021-0.285-9.081-0.844L1125.413,617.924z
		 M1085.294,551.039c-0.131,0-0.257,0.036-0.363,0.105c-0.199,0.124-0.317,0.341-0.315,0.579
		c0.114,15.121,5.106,36.232,18.773,50.135c8.508,8.644,18.965,13.025,31.082,13.025c1.035,0,2.112-0.033,3.201-0.099
		c12.78-0.765,19.347-3.215,27.022-10.085c0.196-0.174,0.272-0.452,0.193-0.709c-0.925-2.901-0.698-5.618,0.638-7.652
		c1.3-1.98,3.524-3.163,6.101-3.244c1.855-0.059,3.627-0.24,5.268-0.538c0.227-0.041,0.417-0.194,0.506-0.41
		c0.029-0.069,0.055-0.148,0.079-0.228c0.017-0.051,0.035-0.109,0.045-0.128c1.334-2.051,5.177-11.124,6.414-14.226
		c0.078-0.203,0.057-0.431-0.058-0.612c-0.117-0.185-0.317-0.303-0.533-0.315c-0.497-0.03-0.985-0.037-1.416-0.044l-0.355-0.004
		c-0.64-0.006-1.293-0.019-1.733-0.067c-5.23-0.669-7.479-4.444-7.352-7.67c0.132-3.417,2.849-7.215,8.502-7.477
		c0.542-0.025,1.078-0.037,1.609-0.037c1.328,0,2.655,0.078,3.946,0.229c0.005,0,0.008,0,0.013,0c0.391,0,0.657-0.214,0.728-0.521
		c0.727-3.103,1.21-5.767,1.477-8.146c0.029-0.252-0.084-0.497-0.295-0.639c-0.116-0.076-0.245-0.115-0.38-0.115
		c-0.113,0-0.226,0.028-0.323,0.082c-7.798,4.223-24.842,4.844-44.664,5.179c-1.973,0.036-3.972,0.052-5.979,0.052
		c-14.522,0-40.524-0.825-51.525-6.348C1085.504,551.064,1085.402,551.039,1085.294,551.039z M1182.681,565.221
		c-0.419,0-0.843,0.013-1.275,0.027l-0.227,0.008c-3.287,0.161-4.816,1.996-4.877,3.742c-0.059,1.518,0.967,3.279,4.021,3.666
		c0.233,0.025,0.544,0.028,0.906,0.031l0.366,0.004c2.479,0.021,7.088,0.059,9.854,3.082c1.654,1.791,2.389,4.297,2.185,7.449
		c-0.395,6.299-7.413,13.286-21.891,13.745c-1.376,0.053-2.431,0.582-3.05,1.529c-0.746,1.154-0.777,2.865-0.083,4.692
		c0.455,1.214,1.753,1.78,4.084,1.78c0.935,0,1.993-0.093,3.24-0.283c18.161-2.676,26.974-11.034,26.186-24.844
		c-0.392-6.797-5.543-12.151-13.443-13.973c-0.301-0.016-0.438-0.029-0.569-0.064c0.032-0.001-0.029-0.034-0.096-0.059
		C1186.185,565.395,1184.411,565.221,1182.681,565.221z M1080.174,555.957c-3.595,0-6.834,1.275-9.125,3.591
		c-3.266,3.296-4.54,8.443-3.688,14.886c0.747,5.706,4.185,11.235,9.431,15.171c4.407,3.304,9.597,5.124,14.608,5.124l0.359-0.003
		c0.245-0.005,0.469-0.139,0.585-0.35c0.117-0.211,0.112-0.471-0.013-0.68c-1.261-2.09-2.424-4.244-3.451-6.404
		c-0.109-0.234-0.351-0.387-0.613-0.387c-0.123,0.002-0.232,0.011-0.343,0.019c-0.109,0.011-0.209,0.019-0.312,0.019
		c-3.077,0-6.041-1.115-8.574-3.227c-3.223-2.704-5.305-6.741-5.566-10.801c-0.2-3.021-0.129-6.811,2.188-9.326
		c1.237-1.339,2.903-2.143,5.099-2.46c0.364-0.049,0.619-0.379,0.576-0.749c-0.146-1.282-0.262-2.548-0.355-3.795
		c-0.024-0.347-0.319-0.624-0.671-0.627L1080.174,555.957z M1188.126,578.303c-0.246,0.042-0.44,0.198-0.53,0.42
		c-0.641,1.594-2.71,6.61-4.562,10.639c-0.122,0.265-0.062,0.578,0.153,0.778c0.125,0.117,0.29,0.184,0.464,0.184
		c0.114,0,0.223-0.026,0.322-0.081c4.114-2.19,5.725-5.188,5.855-7.262c0.128-1.947-0.237-3.443-1.084-4.443
		c-0.132-0.154-0.32-0.24-0.519-0.24h-0.023L1188.126,578.303z M1081.315,564.988c-1.345,0.2-2.285,0.614-2.879,1.269
		c-1.005,1.09-1.375,3.125-1.161,6.402c0.199,3.008,1.763,6.02,4.182,8.053c1.276,1.053,2.787,1.783,4.37,2.113l0.138,0.014
		c0.2,0,0.389-0.087,0.519-0.24c0.16-0.188,0.204-0.451,0.115-0.684c-2.011-5.213-3.531-10.721-4.521-16.371
		c-0.056-0.325-0.337-0.562-0.668-0.562h-0.022L1081.315,564.988z M1127.06,537.607c-33.314,0-40.583,4.287-42.162,6.13
		c-0.574,0.673-0.578,1.191-0.516,1.567c0.465,3.426,17.133,8.263,52.73,8.263c1.997,0,3.962-0.012,5.935-0.046
		c24.665-0.415,45.132-1.311,45.733-8.058c0.017-0.173-0.036-0.344-0.146-0.483c-2.003-2.495-17.324-6.482-51.328-7.247
		C1133.592,537.648,1130.242,537.607,1127.06,537.607z"/>
	<path clip-path="url(#SVGID_2_)" fill="#EB987B" d="M1250.901,723.452c-18.448-53.535-23.203-190.412-17.727-235.126
		c3.45-28.173-0.092-49.391-10.828-64.861c-0.62-0.521-0.984-1.008-1.118-1.474c-0.025-0.085-0.064-0.161-0.114-0.224
		c-10.453-13.926-27.48-22.644-50.604-25.908c-19.734-2.786-34.441-4.083-46.288-4.083c-41.991,0-53.812,16.843-70.772,55.272
		c-16.199,38.011-24.733,85.575-24.682,137.556c0.148,0.563,0.188,0.875,0.146,1.136c-0.064,0.16-0.094,0.234-0.117,0.312
		c0.005,7.378,0.198,14.68,0.559,21.801l0.209,3.681c2.319,39.943,4.323,74.455,11.792,111.918h-3.888
		c-7.41-37.486-9.403-71.879-11.708-111.689l-0.209-3.698c-0.337-6.609-0.525-13.314-0.575-20.495
		c-0.004-0.318-0.231-0.596-0.544-0.658c-14.987-3.065-29.604-12.243-42.271-26.544c-10.731-12.116-19.677-27.668-24.547-42.668
		c-0.091-0.279-0.35-0.468-0.646-0.468c-0.303,0.003-0.567,0.203-0.651,0.487c-2.101,7.086-2.859,14.455-3.124,18.215
		c-0.067,1.014-0.901,1.808-1.896,1.808c-0.644-0.043-1.103-0.273-1.442-0.672c-0.337-0.393-0.502-0.894-0.464-1.409
		c0.508-7.22,1.934-17.603,5.845-26.056c0.062-0.138,0.078-0.284,0.048-0.429c-0.202-0.912-0.387-1.816-0.548-2.711
		c-0.046-0.256-0.229-0.46-0.476-0.533l-0.049-0.015l-0.144-0.012c-0.189,0-0.372,0.08-0.501,0.221
		c-4.847,5.275-7.644,10.984-8.803,17.965c-0.152,0.938-0.943,1.618-1.882,1.618c-0.108,0-0.219-0.007-0.331-0.023
		c-1.026-0.173-1.726-1.181-1.549-2.242c1.313-7.941,4.532-14.402,10.127-20.335c0.221-0.237,0.244-0.599,0.06-0.859l-0.355-0.497
		c-0.125-0.176-0.331-0.283-0.552-0.283c-0.124,0-0.245,0.034-0.351,0.098c-7.191,4.298-16.978,11.466-18.906,24.032
		c-0.145,0.942-0.95,1.651-1.875,1.651c-0.11,0-0.216-0.015-0.319-0.028c-1.025-0.169-1.736-1.168-1.57-2.226
		c1.631-10.657,8.626-19.685,20.79-26.832c0.294-0.173,0.415-0.541,0.28-0.854c-3.309-7.664-2.541-16.821,2.158-25.781
		c6.703-12.797,19.5-22.087,30.427-22.087c0.211,0,0.421-0.095,0.55-0.249c0.142-0.175,0.2-0.381,0.162-0.569
		c-2.181-9.98-7.991-18.717-14.143-27.968c-9.519-14.324-21.355-32.139-24.73-61.093c-0.024-0.208-0.139-0.389-0.314-0.498
		c-0.102-0.066-0.229-0.104-0.36-0.104h-0.053l-0.158,0.033c-2.376,0.805-4.34,1.246-5.845,1.314c-0.74,0-1.336-0.327-1.684-0.876
		c-0.375-0.588-0.418-1.328-0.116-1.933c0.807-1.638,1.383-3.909,1.623-6.399c0.021-0.233-0.079-0.464-0.262-0.603
		c-0.117-0.092-0.266-0.144-0.414-0.144h-0.063l-0.173,0.043c-4.809,1.757-9.894,2.648-15.115,2.648
		c-31.299,0-65.322-29.058-79.141-67.592c-10.939-30.515-9.64-57.926,3.661-77.183c10.671-15.453,28.771-24.68,48.417-24.68
		c6.308,0,12.589,0.938,18.668,2.788l0.049,0.016l0.146,0.015c0.121,0,0.24-0.033,0.345-0.095c0.163-0.095,0.28-0.256,0.321-0.441
		c0.449-2.09,0.943-3.961,1.465-5.562c8.169-24.837,32.1-40.886,60.968-40.886c19.142,0,36.294,7.254,47.06,19.901
		c4.986,5.859,8.662,13.741,10.93,23.425c0.05,0.219,0.207,0.399,0.418,0.48c0.081,0.03,0.161,0.045,0.244,0.045
		c0.138,0,0.273-0.042,0.39-0.124c9.756-6.869,21.123-10.351,33.784-10.351c5.89,0,12.139,0.76,18.576,2.259
		c19.904,4.635,33.222,17.91,38.51,38.389c8.748,33.854-6.338,83.205-32.943,107.765c-15.754,14.493-34.948,23.146-51.348,23.146
		c-6.186,0-11.954-1.208-17.146-3.593c-0.093-0.042-0.19-0.063-0.283-0.063c-0.153,0-0.305,0.055-0.429,0.154
		c-0.202,0.169-0.292,0.438-0.23,0.687c0.185,0.762,0.438,1.555,0.686,2.302l0.05,0.15c0.344,1.05,0.734,2.24,0.992,3.559
		c0.122,0.645-0.093,1.326-0.561,1.778c-0.351,0.345-0.818,0.532-1.317,0.532c-0.179,0-0.318-0.013-0.44-0.044
		c-2.391-0.584-4.305-1.141-6.025-1.751l-0.056-0.021l-0.171-0.021c-0.255,0-0.485,0.14-0.603,0.367
		c-8.344,15.975-8.115,34.872-7.892,53.148c0.236,20.906,0.461,40.636-11.296,55.47c-0.175,0.217-0.196,0.527-0.052,0.771
		c2.461,4.094,4.134,9.545,4.591,14.953c0.246,2.959,0.124,5.968-0.361,8.942c-0.023,0.127-0.007,0.262,0.05,0.387
		c0.132,0.294,0.195,0.56,0.195,0.81c0,13.932,4.63,56.273,25.203,67.703c0.104,0.058,0.215,0.084,0.331,0.084
		c0.112,0,0.225-0.026,0.322-0.079c0.205-0.11,0.34-0.323,0.354-0.552c2.987-39.025,11.19-75.18,23.719-104.552
		c3.456-7.847,6.591-14.329,9.581-19.813c0.1-0.183,0.11-0.4,0.025-0.594c-0.081-0.192-0.253-0.337-0.454-0.389
		c-10.461-2.656-21.029-10.525-26.298-19.583c-4.167-7.147-4.958-14.656-2.288-21.716c5.572-14.746,16.617-16.947,22.706-16.947
		c1.95,0,3.921,0.221,5.854,0.656c11.47,2.593,23.432,13.525,24.103,29.404c0.01,0.24,0.147,0.458,0.36,0.571
		c0.097,0.052,0.208,0.079,0.318,0.079c0.124,0,0.244-0.033,0.351-0.097c6.183-3.763,13.339-6.267,21.879-7.655
		c0.179-0.03,0.341-0.131,0.444-0.277c0.107-0.157,0.148-0.346,0.113-0.523c-3.205-16.348,1.686-28.875,14.952-38.298
		c0.321-0.231,0.698-0.352,1.089-0.352c0.623,0,1.204,0.31,1.559,0.827c0.611,0.886,0.401,2.1-0.466,2.71
		c-12.146,8.628-16.382,19.648-13.332,34.684c0.062,0.313,0.341,0.542,0.666,0.542c4.364-0.457,8.919-0.679,13.998-0.679
		c2.201,0,4.522,0.044,6.899,0.13h0.001c0.391,0,0.688-0.287,0.703-0.652c0.168-4.146,1.266-14.327,7.792-19.285
		c0.332-0.252,0.727-0.385,1.139-0.385c0.608,0,1.167,0.282,1.534,0.775c0.63,0.863,0.456,2.09-0.391,2.733
		c-5.404,4.101-6.147,13.555-6.247,16.355c-0.014,0.365,0.273,0.681,0.64,0.702c8.729,0.512,18.703,1.543,30.489,3.148
		c0.008,0,0.016,0,0.024,0c0.294,0,0.491-0.104,0.616-0.273c9.608-13.182,7.52-34.029,5.419-45.284
		c-0.098-0.518,0.01-1.041,0.303-1.472c0.288-0.421,0.722-0.707,1.22-0.801c0.123-0.024,0.242-0.035,0.362-0.035
		c0.906,0,1.692,0.666,1.866,1.583c2.519,13.514,3.769,32.481-4.583,46.082c-0.118,0.194-0.133,0.433-0.039,0.638
		c0.097,0.207,0.286,0.351,0.507,0.389c9.93,1.581,18.822,4.195,26.438,7.771c0.092,0.042,0.188,0.062,0.287,0.062
		c0.093,0,0.185-0.019,0.271-0.055c0.18-0.077,0.317-0.229,0.376-0.414c3.461-10.783,13.001-24.793,25.771-30.074
		c3.178-1.311,6.374-1.975,9.5-1.975c4.014,0,7.88,1.086,11.494,3.229c14.985,8.891,16.3,22.657,12.531,32.576
		c-3.888,10.227-15.159,21.234-30.722,21.234c-0.188,0-0.34-0.007-0.519-0.016c0,0-0.001,0-0.002,0
		c-0.272,0-0.492,0.124-0.614,0.324c-0.131,0.211-0.135,0.478-0.009,0.694c9.017,15.744,11.969,36.963,8.773,63.065
		c-5.579,45.457-0.756,182.389,17.98,234.645H1250.901z M960.264,509.969c-0.162,0-0.32,0.058-0.442,0.163
		c-0.196,0.169-0.281,0.438-0.214,0.688c6.479,25.332,30.784,64.445,64.538,72.077l0.038,0.008l0.111,0.008
		c0.152,0,0.302-0.051,0.422-0.146c0.165-0.132,0.259-0.324,0.259-0.531c0.038-8.905,0.336-17.843,0.885-26.564
		c0.017-0.282-0.145-0.548-0.4-0.662c-8.785-3.964-15.874-12.865-21.067-26.456c-5.094-13.327-6.973-27.708-7.639-35.094
		c-0.026-0.291-0.234-0.532-0.521-0.6l-0.037-0.008l-0.119-0.01c-0.234,0-0.448,0.118-0.573,0.315
		c-0.845,1.337-1.597,2.379-2.365,3.277c-8.127,9.522-17.487,14.983-25.684,14.983c-2.4,0-4.73-0.47-6.927-1.396
		C960.447,509.988,960.358,509.969,960.264,509.969z M952.78,497.676c0.016,0.041,0.036,0.085,0.063,0.131l0.127,0.225
		c0.164,0.29,0.327,0.578,0.517,0.861c3.817,5.732,8.518,8.641,13.969,8.641c7.082,0,15.393-4.978,22.804-13.657
		c4.605-5.384,6.77-12.769,6.091-20.795c-0.685-8.167-3.983-14.373-6.757-16.683c-2.452-2.042-5.371-3.076-8.678-3.076
		c-9.436,0-21.068,8.609-27.06,20.029c-2.664,5.089-6.356,15-1.154,24.212C952.706,497.571,952.721,497.601,952.78,497.676z
		 M995.875,293.629c-0.117,0-0.232,0.031-0.332,0.088c-4.121,2.273-8.45,3.822-12.86,4.6c-0.186,0.033-0.346,0.139-0.451,0.297
		c-0.104,0.161-0.136,0.354-0.092,0.535c0.613,2.498,2.482,4.794,5.88,7.229c0.637,0.456,0.936,1.252,0.764,2.028
		c-0.175,0.771-0.781,1.352-1.547,1.478c-2.854,0.484-5.568,0.845-8.065,1.075c-0.311,0.027-0.561,0.261-0.608,0.568
		c-0.017,0.1,0.002,0.274,0.017,0.338c-2.516,20.194,1.938,41.721,6.654,64.512c5.104,24.668,10.379,50.168,6.889,75.687
		c-0.023,0.17-0.093,0.366-0.203,0.586c-0.146,0.289-0.066,0.643,0.185,0.842c0.03,0.022,0.059,0.054,0.088,0.085
		c0.076,0.076,0.125,0.124,0.177,0.166c0.113,0.099,0.271,0.156,0.433,0.156c0.265-0.025,0.437-0.124,0.547-0.274
		c10.194-13.703,9.978-32.314,9.746-52.019c-0.219-18.684-0.444-37.99,8.22-54.779c0.162-0.317,0.051-0.709-0.254-0.893
		c-2.616-1.577-4.661-3.604-6.253-6.196c-0.374-0.615-0.386-1.383-0.027-2.005c0.34-0.597,0.988-0.966,1.695-0.966
		c0.173,0.006,0.317,0.009,0.462,0.009c2.046,0,4.011-0.609,6.005-1.863c0.179-0.112,0.296-0.302,0.315-0.51
		c0.021-0.206-0.054-0.409-0.204-0.555c-8.796-8.429-14.347-21.759-16.504-39.622c-0.026-0.225-0.162-0.421-0.366-0.524
		C996.092,293.656,995.985,293.629,995.875,293.629z M964.904,297.552c-0.141,0-0.275,0.043-0.39,0.124
		c-0.158,0.11-0.264,0.286-0.286,0.482c-1.064,9.628-3.001,18.244-5.754,25.609c-3.302,8.862-7.746,15.785-13.211,20.573
		c-0.16,0.139-0.246,0.349-0.23,0.562c0.015,0.208,0.131,0.404,0.309,0.519c1.991,1.278,5.826,3.127,7.549,3.127h0.181
		c0.741,0,1.424,0.449,1.743,1.143c0.315,0.711,0.173,1.571-0.357,2.134c-1.526,1.64-4.336,3.519-7.714,5.157
		c-0.255,0.124-0.406,0.396-0.378,0.681c3.03,28.871,14.312,45.829,24.267,60.792c7.079,10.653,13.191,19.849,15.148,31.284
		c0.042,0.252,0.221,0.455,0.463,0.533c0.444,0.138,0.878,0.303,1.307,0.482c0.084,0.035,0.173,0.053,0.264,0.053
		c0.12,0,0.239-0.03,0.343-0.093c0.179-0.101,0.305-0.29,0.331-0.503c3.061-24.454-2.043-49.136-6.979-73.003
		c-4.731-22.834-9.196-44.378-6.802-65.207c0.023-0.19-0.036-0.384-0.166-0.529c-0.128-0.144-0.313-0.227-0.507-0.227l-0.366,0.006
		c-2.234,0-4.146-0.17-5.683-0.506c-0.744-0.161-1.323-0.755-1.474-1.513c-0.15-0.762,0.154-1.542,0.778-1.986
		c2.144-1.525,4.102-4.625,4.875-7.714c0.048-0.193,0.01-0.396-0.105-0.557c-0.112-0.161-0.29-0.265-0.485-0.285
		c-2.189-0.218-4.378-0.594-6.51-1.119l-0.04-0.01L964.904,297.552z M1053.105,370.297c-8.599,0-15.527,5.283-19.013,14.492
		c-2.265,5.984-1.587,12.15,2.011,18.329c4.981,8.567,15.673,16.2,25.426,18.148l0.133,0.012c0.239,0,0.462-0.128,0.583-0.331
		c2.432-4.066,4.777-7.513,7.173-10.535c0.136-0.173,0.164-0.425,0.134-0.587c1.313-11.314-3.981-19.003-14.52-20.988
		c-0.501-0.094-0.936-0.38-1.225-0.807c-0.292-0.43-0.401-0.95-0.306-1.465c0.166-0.917,0.947-1.58,1.861-1.58
		c0.116,0,0.236,0.012,0.355,0.034c10.318,1.938,16.771,8.93,17.702,19.184c0.023,0.261,0.198,0.488,0.445,0.578l0.057,0.02
		l0.175,0.021c0.178,0,0.353-0.07,0.479-0.195c1.358-1.354,2.842-2.664,4.538-4.011c0.163-0.126,0.257-0.319,0.257-0.531v-0.042
		l-0.025-0.159c1.124-15.447-10.019-26.493-21.07-28.987C1056.514,370.499,1054.775,370.297,1053.105,370.297z M1236.557,388.669
		c1.002,0,1.829,0.764,1.923,1.773c0.091,1.065-0.688,2.015-1.737,2.11c-8.726,0.808-18.835,10.036-20.033,18.287l-0.025,0.165
		c0,0.188,0.08,0.369,0.216,0.497c2.836,2.634,5.438,5.572,7.735,8.732c0.106,0.145,0.271,0.244,0.452,0.27
		c1.406,0.207,2.838,0.312,4.255,0.312c13.771,0,23.729-9.704,27.154-18.723c4.139-10.906,0.064-21.299-10.895-27.802
		c-3.034-1.803-6.253-2.716-9.565-2.716c-2.62,0-5.338,0.574-8.076,1.704c-11.509,4.751-20.693,17.916-23.815,28.467
		c-0.091,0.306,0.04,0.629,0.32,0.785c2.858,1.595,5.578,3.378,8.083,5.3c0.119,0.091,0.265,0.141,0.413,0.141h0.055l0.151-0.032
		c0.21-0.066,0.375-0.232,0.442-0.442c2.959-9.33,13.396-17.951,22.791-18.823C1236.448,388.671,1236.502,388.669,1236.557,388.669z
		 M941.36,347.431c-0.126,0-0.25,0.036-0.357,0.104c-0.301,0.187-0.604,0.367-0.909,0.539c-0.215,0.124-0.344,0.353-0.342,0.595
		c0.007,2.208-0.197,4.267-0.604,6.12c-0.054,0.234,0.023,0.482,0.202,0.646c0.128,0.116,0.291,0.179,0.46,0.179h0.055l0.151-0.032
		c2.415-0.761,5.182-2.002,7.589-3.404c0.223-0.132,0.351-0.37,0.338-0.626c-0.017-0.261-0.176-0.485-0.411-0.584
		c-2.198-0.957-4.345-2.221-5.739-3.378C941.67,347.488,941.517,347.431,941.36,347.431z M892.757,187.482
		c-18.41,0-35.346,8.607-45.303,23.024c-12.555,18.187-13.688,44.331-3.188,73.615c13.293,37.077,45.774,65.036,75.554,65.036
		c5.701,0,11.052-1.069,15.906-3.178c8.224-3.591,14.678-11.529,19.184-23.59c2.746-7.363,4.653-15.99,5.665-25.641l0.474-5.446
		c1.521-23.137-2.288-48.363-9.702-64.272c-7.524-16.171-20.113-28.569-35.445-34.912l-5.011-1.847
		C905.002,188.419,898.906,187.482,892.757,187.482z M1016.723,337.096c-0.181,0-0.354,0.073-0.484,0.203
		c-0.059,0.062-0.108,0.122-0.152,0.182c-1.583,1.166-3.22,2.007-4.884,2.527c-0.233,0.075-0.409,0.269-0.461,0.506
		c-0.051,0.241,0.032,0.491,0.218,0.654c1.78,1.562,3.917,2.662,7.148,3.678l0.049,0.016l0.154,0.016
		c0.18,0,0.355-0.073,0.481-0.202c0.178-0.176,0.243-0.438,0.167-0.682c-0.444-1.413-0.933-3.324-0.75-5.579
		c0.021-0.24-0.091-0.478-0.291-0.616c-0.167-0.113-0.327-0.23-0.488-0.348l-0.309-0.225
		C1017.007,337.143,1016.866,337.096,1016.723,337.096z M1067.467,176.676c-12.609,0-23.842,3.713-33.388,11.036l-4.593,3.933
		c-1.854,1.754-3.609,3.624-5.229,5.567c-20.631,24.771-26.169,66.178-24.856,87.967l0.65,6.137
		c3.239,31.699,17.546,49.158,40.287,49.158c15.478,0,33.714-8.278,48.785-22.143c25.23-23.273,40.104-71.82,31.826-103.888
		c-4.913-18.991-17.25-31.296-35.68-35.586C1079.079,177.41,1073.088,176.676,1067.467,176.676z M976.741,298.876
		c-0.314,0.011-0.587,0.245-0.644,0.557c-0.422,2.325-1.409,4.766-2.779,6.875c-0.137,0.207-0.148,0.473-0.029,0.694
		c0.124,0.221,0.351,0.355,0.599,0.355c2.122-0.018,4.539-0.187,7.188-0.506c0.249-0.028,0.46-0.193,0.551-0.431
		c0.091-0.231,0.047-0.496-0.119-0.688c-1.735-1.982-2.775-4.054-3.184-6.337c-0.061-0.325-0.342-0.561-0.671-0.561
		C977.65,298.835,976.741,298.876,976.741,298.876z M974.719,143.316c-20.66,0-48.079,10.015-57.355,38.24
		c-0.522,1.596-1.021,3.527-1.481,5.741c-0.066,0.326,0.109,0.649,0.418,0.77c16.679,6.56,30.351,19.805,38.499,37.296
		c7.682,16.502,11.669,43.636,9.921,67.519c-0.028,0.323,0.184,0.621,0.5,0.705c3.576,0.956,7.107,1.441,10.495,1.441
		c6.993,0,13.662-1.938,19.826-5.761c0.22-0.135,0.345-0.389,0.318-0.646c-1.832-17.638,2.043-65.774,25.49-93.929
		c2.39-2.872,5.08-5.59,7.994-8.082c0.188-0.163,0.273-0.414,0.222-0.656c-2.057-9.963-5.745-18.289-10.668-24.076
		C1008.85,150.082,992.747,143.316,974.719,143.316z"/>
	<g clip-path="url(#SVGID_2_)">
		<path fill="#FCB538" d="M1243.385,261.893c1.256-1.523,2.393-3.166,3.396-4.9c5.788-9.981,7.403-23.116,4.019-35.02
			c-3.136-11.016-10.006-18.946-19.353-22.316c-0.974-0.351-2.034,0.133-2.376,1.107c-0.35,0.959,0.163,2.028,1.137,2.379
			c8.168,2.945,14.202,9.98,16.994,19.796c3.595,12.651,0.899,27.355-6.721,36.587c-0.657,0.792-0.523,1.955,0.275,2.612
			C1241.562,262.789,1242.74,262.685,1243.385,261.893"/>
		<path fill="#FCB538" d="M1220.375,214.831c1.041-1.796,0.316-4.169-1.624-5.294c-1.944-1.126-4.364-0.578-5.406,1.219
			c-1.041,1.796-0.317,4.171,1.626,5.298C1216.913,217.18,1219.332,216.627,1220.375,214.831"/>
		<path fill="#FCB538" d="M1197.241,239.248c-0.9,1.552-0.271,3.602,1.409,4.576c1.682,0.975,3.772,0.502,4.673-1.05
			c0.902-1.556,0.274-3.605-1.409-4.581C1200.235,237.219,1198.143,237.692,1197.241,239.248"/>
		<g>
			<path fill="#FCB538" d="M1216.533,193.609c0.786,0.673,1.959,0.595,2.63-0.18c1.247-1.439,2.258-2.844,3.055-4.221
				c1.587-2.735,2.321-5.343,2.462-7.85c16.239-0.605,35.201,2.256,54.321,7.26v-3.784c-19.209-4.971-38.231-7.796-54.556-7.182
				c-1.129-6.358-5.809-12.036-10.172-17.318c-6.894-8.331-13.407-16.201-9.262-26.536c0.256-0.633,0.139-1.354-0.301-1.88
				c-0.438-0.526-1.131-0.775-1.808-0.651c-12.769,2.41-28.009,12.326-30.36,24.153c-0.985,4.957-0.067,12.267,9.817,18.936
				c2.664,1.958,6.438,3.567,10.084,5.124c4.514,1.922,9.511,4.059,11.188,6.511c-2.54,1.856-5.257,4.566-7.947,7.881
				c-1.241-2.744-3.421-5.898-5.665-8.057c-0.746-0.718-1.923-0.71-2.641,0.021c-0.717,0.735-0.687,1.91,0.059,2.625
				c2.63,2.534,4.871,6.373,5.455,8.475c0.035,0.135,0.12,0.246,0.178,0.362c-2.144,2.982-4.224,6.3-6.128,9.834
				c-2.311-1.646-5.003-2.928-6.926-3.841c-0.763-0.355-1.38-0.646-1.769-0.871c-0.898-0.521-2.038-0.223-2.547,0.656
				c-0.514,0.885-0.203,2.018,0.695,2.538c0.452,0.262,1.17,0.612,2.051,1.027c1.927,0.907,4.695,2.223,6.799,3.825
				c-1.464,2.992-2.78,6.096-3.901,9.246c-0.972-0.755-2.047-1.535-3.114-2.297c-1.581-1.132-3.752-2.686-4.166-3.31
				c-0.575-0.857-1.736-1.106-2.593-0.548c-0.857,0.557-1.089,1.71-0.519,2.567c0.764,1.145,2.442,2.377,5.124,4.292
				c1.481,1.06,2.97,2.139,4.036,3.067c-0.784,2.612-1.409,5.23-1.848,7.816c-10.837-6.128-15.793-7.3-24.016-5.752
				c-8.229,1.669-15.905,8.753-17.861,16.466c-1.44,5.682,0.334,11.011,5.001,15.009c0.432,0.371,1.015,0.53,1.571,0.422
				c0.56-0.098,1.011-0.417,1.292-0.948c3.984-7.604,8.452-6.102,17.136-2.948c5.402,1.97,9.654,1.725,12.581,0.254
				c1.487-0.747,3.513-2.191,4.83-4.465c0.052-0.093,0.101-0.209,0.156-0.306c0.272,0.858,0.567,1.701,0.927,2.519
				c0.067,0.149,0.178,0.265,0.27,0.386c-1.951,1.653-3.688,3.753-5.182,6.328l-0.372,0.659c-3.859,7.043-4.257,13.966-1.188,20.597
				c5.971,12.893,23.979,21.2,33.984,23.418c3.371,0.646,6.319,0.891,8.912,0.865l0.472,0.542c2.674,3.053,5.173,5.906,7.737,8.667
				c-5.888-0.132-11.467-0.909-16.949-2.005l-3.662-0.777c-2.984-0.669-5.958-1.385-8.964-2.122
				c-3.921-0.967-7.979-1.959-12.106-2.817c-0.641-0.125-1.311,0.095-1.76,0.584c-0.446,0.491-0.608,1.185-0.413,1.808
				c0.97,3.24,2.6,6.458,4.773,9.466c-0.846,0.002-1.699,0.018-2.551,0.036c-2.297,0.049-4.469,0.097-6.351-0.209
				c-0.694-0.111-1.4,0.188-1.814,0.757c-0.419,0.574-0.477,1.329-0.162,1.959c2.814,5.496,6.956,10.258,12.304,14.148l0.004,0.001
				c1.477,1.076,3.029,2.056,4.646,2.974l5.507,2.747c4.79,2.074,9.969,3.586,15.327,4.628l4.591,0.773
				c14.642,2.072,30.133,0.806,42.254-2.394c0.646-0.17,1.292-0.361,1.934-0.567L1279,354.118v-5.311l-33.38-21.813
				c-10.904-8.04-17.268-15.057-24.72-23.564c7.371-1.207,10.911-5.042,12.527-7.83l0.002-0.006
				c3.916-6.752,2.53-16.299-2.528-24.821c-2.105-5.915,0.565-15.955,5.407-21.059c0.69-0.745,0.664-1.916-0.089-2.624
				c-0.752-0.706-1.936-0.678-2.644,0.059c-3.827,4.028-6.572,11.287-6.71,17.96c-2.708-3.181-5.947-6.053-9.647-8.352
				c-3.118-1.946-6.076-3.575-8.878-4.903c1.024-0.736,1.904-1.691,2.589-2.871l0.032-0.055c2.43-4.257,2.173-10.695-0.661-16.023
				c-0.488-0.911-1.615-1.265-2.526-0.796c-0.909,0.464-1.258,1.585-0.771,2.498c2.217,4.182,2.514,9.306,0.703,12.463l-0.02,0.034
				c-0.961,1.655-2.411,2.548-4.296,2.685c-6.049-2.198-11.29-2.742-15.817-1.651c-1.546,0.374-2.991,0.96-4.37,1.709
				c-7.264-17.173,8.915-50.677,22.406-60.667c0.193,0.047,0.396,0.094,0.604,0.086c1.023-0.059,1.804-0.932,1.738-1.958
				c-0.381-5.39-7.341-8.36-14.07-11.226c-3.444-1.474-7.018-2.998-9.383-4.741c-6.615-4.457-9.405-9.56-8.292-15.156
				c0.494-2.49,1.744-4.921,3.495-7.202c8.441,5.208,17.368-1.301,23.945,3.22c2.178,3.726,5.032,7.185,7.749,10.466
				c7.711,9.328,14.384,17.375,4.929,28.329C1215.646,191.774,1215.748,192.934,1216.533,193.609z M1177.712,242.722
				c-0.196,0.205-0.36,0.429-0.445,0.709c-1.238,3.921-2.881,5.258-5.038,6.307c-3.342,1.625-7.957,1.028-12.841-0.745
				c-3.122-1.134-2.233-1.307-5.591-1.625c-0.277-6.852-5.584-10.323-3.545-16.433c1.533-0.805,3.144-1.417,4.766-1.746
				c7.487-1.414,11.853-0.254,22.238,5.768c0.163,0.094,0.346,0.134,0.511,0.177
				C1177.523,237.729,1177.493,240.283,1177.712,242.722z M1257.08,339.264c-17.984,4.465-42.934,4.59-60.916-4.282
				c4.772-5.178,8.602-13.932,8.049-20.862c7.492,1.61,15.297,2.783,23.842,2.589c4.499,4.549,9.486,8.98,16.115,13.807
				L1257.08,339.264z M1188.551,251.96c6.578-1.586,15.272,1.065,26.594,8.124c12.944,8.066,20.155,24.352,14.843,33.513
				l-0.002,0.007c-3.242,5.59-11.02,7.53-21.835,5.483c-9.877-2.195-26.056-10.21-31.145-21.177
				c-2.52-5.431-2.153-11.177,1.083-17.071l0.32-0.579C1181.066,255.68,1184.381,252.969,1188.551,251.96z"/>
			<path fill="#FCB538" d="M1279,261.189v-4.279c-5.008,2.396-9.352,5.997-12.567,11.058c-4.292,7.404-9.89,21.605-1.593,36.285
				l2.204,3.68l3.175,5.296l2.176,3.632l3.678,5.177l0.54-5.9l-1.598-2.091v-0.001l-1.909-3.209
				c-0.012,0.008-0.023,0.015-0.037,0.021l0.031-0.025l-1.481-2.507l-2.16-3.659c-8.854-13.168-4.786-26.189,0.176-34.753
				C1272.048,266.115,1275.263,263.254,1279,261.189z"/>
		</g>
	</g>
	<g clip-path="url(#SVGID_2_)">
		<path fill="#8AAAD9" d="M834.97,570.28c9.844,2.205,23.459,13.269,29.518,21.823c0.052,0.068,0.122,0.112,0.179,0.174
			c-1.827,1.902-3.205,4.386-3.956,7.394c-7.56-4.218-12.675-5.142-15.957-2.825c-3.226,2.271-4.131,7.278-2.752,15.29
			c1.211,7.077,9.615,19.959,20.393,29.549c-0.001,0.008-0.001,0.014-0.002,0.022c-0.795,12.473-3.652,33.359-8.913,49.204
			c-1.074,3.233-1.969,5.918-2.648,8.03c-1.095,3.409-3.696,13.949-3.696,13.949l4.251-0.424l3.351-12.507l1.288-4.296
			c5.126-16.129,8.802-37.289,9.959-50.991c2.013,1.576,4.085,2.996,6.196,4.234c0.033,0.037,0.051,0.074,0.088,0.108
			c3.766,2.759,8.354,9.469,5.605,16.626c-0.379,0.994,0.104,2.113,1.078,2.497c0.203,0.078,0.416,0.119,0.62,0.126
			c0.789,0.031,1.54-0.444,1.842-1.223c2.049-5.338,0.97-10.432-1.212-14.445c1.114,0.354,2.224,0.668,3.332,0.877
			c3.669,0.698,8.324,1.586,13.513,1.781c11.351,0.434,25.258-2.456,37.038-17.811c1.027,1.494,1.718,3.138,1.857,4.497
			c0.099,0.958,0.887,1.685,1.815,1.717c0.092,0.003,0.182,0.002,0.275-0.006c1.041-0.114,1.797-1.055,1.693-2.12
			c-0.543-5.26-6.011-12.656-12.437-12.077c-1.055,0.096-1.822,1.028-1.732,2.093c0.086,1.057,1.02,1.817,2.053,1.744
			c1.316-0.107,2.641,0.438,3.842,1.342c-14.588,19.407-32.017,17.951-47.207,15.051c-4.965-0.951-10.075-3.625-14.902-7.214
			c5.88-1.101,11.02-4.719,14.794-10.531c3.832-5.9,5.883-13.741,4.388-16.787c-0.258-0.539-0.744-0.921-1.324-1.038
			c-0.527-0.106-1.032-0.257-1.547-0.394c1.359-1.512,2.282-3.2,2.861-4.935c3.474-0.394,6.053,0.27,8.694,2.229
			c0.274,5.748,4.132,16.073,15.629,17.2c0.524,0.058,1.039,0.085,1.554,0.105h0.001c10.376,0.394,17.469-5.477,18.835-15.407
			c5.994-1.326,12.412-3.216,16.995-6.739c25.14,24.803,34.026,70.116,32.54,111.772h3.895c0.032-0.737,0.068-1.472,0.092-2.209
			c4.138-1.344,9.007-3.63,12.383-8.966c0.564-0.899,0.307-2.088-0.575-2.666c-0.884-0.568-2.059-0.307-2.627,0.584
			c-2.41,3.818-5.895,5.759-9.104,6.939c0.09-6.312-0.06-12.655-0.472-18.963c4.376-1.916,11.353-6.628,15.097-13.248
			c0.519-0.924,0.206-2.102-0.702-2.623c-0.913-0.541-2.076-0.211-2.595,0.707c-2.847,5.035-8.138,9.039-12.091,11.049
			c-0.549-6.613-1.396-13.167-2.546-19.581c4.525-2.638,8.562-5.876,13.331-12.712c0.61-0.867,0.407-2.072-0.45-2.686
			c-0.855-0.609-2.044-0.41-2.646,0.458c-3.971,5.686-7.357,8.644-11.002,10.924c-0.918-4.539-2-9.011-3.248-13.366
			c0.388-0.358,0.773-0.713,1.157-1.074c2.391-2.178,4.869-4.436,6.548-6.794c0.619-0.864,0.426-2.064-0.425-2.686
			c-0.845-0.627-2.04-0.436-2.652,0.432c-1.411,1.974-3.661,4.038-5.852,6.044c-1.277-4.019-2.708-7.933-4.286-11.716
			c3.867-2.228,7.834-8.881,9.251-14.074c0.279-1.021-0.315-2.082-1.328-2.369c-1.009-0.281-2.055,0.323-2.334,1.343
			c-1.355,4.969-4.764,9.938-7.152,11.535c-1.389-3.054-2.886-6.009-4.496-8.861c2.201-2.706,4.826-8.13,4.943-11.167
			c0.041-1.063-0.776-1.956-1.824-1.996c-1.047-0.04-1.932,0.791-1.973,1.853c-0.067,1.806-1.738,5.438-3.255,7.752
			c-1.943-3.129-4.019-6.122-6.251-8.938c3.673-3.666,5.548-10.71,6.028-15.874c0.096-1.058-0.672-1.999-1.716-2.101
			c-1.062-0.094-1.966,0.685-2.068,1.741c-0.509,5.459-2.441,10.818-4.699,13.304c-2.312-2.653-4.747-5.155-7.358-7.455
			c-0.485-0.424-1-0.806-1.493-1.22c2.885-5.687,3.546-16.8,2.626-20.014c-0.293-1.015-1.346-1.611-2.359-1.314
			c-1.006,0.305-1.586,1.372-1.292,2.398c0.638,2.209,0.159,11.472-2.031,16.492c-3.957-2.948-8.123-5.435-12.514-7.419
			c0.628-4.021,0.463-9.473-1.751-14.105c-0.46-0.964-1.588-1.363-2.541-0.893c-0.945,0.468-1.339,1.616-0.875,2.577
			c1.68,3.522,1.915,7.657,1.529,10.941c-4.262-1.626-8.709-2.81-13.348-3.57c0.415-5.113-0.869-13.73-4.296-18.175
			c-0.647-0.836-1.843-0.984-2.666-0.334c-0.829,0.663-0.979,1.873-0.334,2.709c2.649,3.431,3.823,10.94,3.532,15.27
			c-5.352-0.594-10.938-0.64-16.756-0.138c-1.326-5.33-3.485-9.296-6.983-12.814c-0.749-0.746-1.95-0.733-2.688,0.025
			c-0.74,0.748-0.735,1.974,0.017,2.722c2.889,2.901,4.651,6.075,5.816,10.451c-3.582,0.452-7.257,1.125-11.007,1.982
			c-3.576-6.188-7.736-10.965-12.383-14.195c-0.864-0.605-2.047-0.378-2.638,0.501c-0.596,0.876-0.377,2.076,0.484,2.678
			c3.934,2.737,7.51,6.781,10.665,11.996c-2.111,0.555-4.245,1.164-6.404,1.842c-0.204,0.061-0.408,0.117-0.602,0.191
			c-0.673,0.208-1.334,0.401-2.011,0.624c-5.608-7.847-16.648-17.263-26.452-21.449c7.949-2.605,15.764-2.667,20.827,0.009
			c0.677,0.351,1.496,0.273,2.084-0.223c0.588-0.494,0.83-1.284,0.62-2.028c-0.512-1.766-1.281-3.424-2.134-4.974
			c3.696,0.609,6.822,1.542,10.646,4.573c0.648,0.524,1.562,0.552,2.251,0.062c0.684-0.477,0.98-1.361,0.726-2.156
			c-0.89-2.881-3.486-6.976-5.497-9.889c4.701,0.562,12.138,2.041,20.388,7.486c0.606,0.407,1.391,0.422,2.018,0.038
			c0.621-0.379,0.98-1.084,0.916-1.822c-0.151-1.751-0.945-3.617-1.743-5.431c4.412,1.643,11.458,4.568,15.069,7.689
			c0.478,0.418,1.12,0.565,1.722,0.4c0.601-0.157,1.088-0.606,1.306-1.207c0.795-2.204,0.546-6.232,0.091-9.752
			c5.415,3.51,14.613,10.451,16.923,14.394c0.393,0.673,1.141,1.041,1.912,0.925c0.757-0.114,1.375-0.678,1.568-1.438
			c0.035-0.132,0.595-2.396,0.984-5.125c6.406,5.099,9.951,8.644,14.61,15.188c0.44,0.625,1.208,0.907,1.939,0.754
			c0.735-0.159,1.312-0.746,1.463-1.493c0.063-0.299,0.147-0.673,0.241-1.101c0.334-1.516,0.814-3.652,1.091-5.829
			c7.407,6.666,12.819,15.418,18.171,29.152c0.279,0.718,1.025,1.17,1.712,1.212c0.76,0.024,1.463-0.414,1.783-1.115l0.398-0.878
			c0.446-0.966,0.872-1.879,1.249-2.822c3.057,6.046,6.865,16.305,6.829,18.066c-0.023,0.782,0.422,1.5,1.115,1.817
			c0.705,0.315,1.521,0.188,2.079-0.333c0.766-0.731,2.118-2.737,3.258-4.52c4.113,8.573,7.579,23.54,6.682,36.14
			c-0.055,0.743,0.322,1.456,0.969,1.818c0.651,0.366,1.443,0.325,2.041-0.126c1.053-0.773,2.371-2.283,3.775-3.951
			c0.867,7.485,0.45,17.584,0.14,25.302l-0.112,2.805c-0.027,0.66,0.284,1.286,0.823,1.656c0.539,0.373,1.232,0.443,1.83,0.18
			c0.951-0.422,1.696-0.984,2.379-1.642c0.314,6.123-0.363,13.671-1.321,19.298c-0.125,0.725,0.167,1.456,0.751,1.888
			c0.585,0.425,1.36,0.481,2,0.146c0.419-0.213,0.909-0.532,1.411-0.875c-0.213,5.486-1.041,14.18-3.086,21.504
			c-0.206,0.738,0.035,1.522,0.618,2.014c0.575,0.488,1.384,0.579,2.059,0.24c1.378-0.701,3.335-2.606,5.475-4.971
			c-0.289,2.571-0.767,5.507-1.392,8.644h3.887c1.052-5.397,1.684-10.379,1.621-14.146c-0.013-0.795-0.51-1.502-1.256-1.767
			c-0.739-0.277-1.567-0.058-2.083,0.555l-0.271,0.312c-1.359,1.61-2.562,2.977-3.592,4.108c1.694-8.89,1.944-17.596,1.87-20.434
			c-0.021-0.737-0.453-1.394-1.108-1.694c-0.659-0.308-1.432-0.205-1.994,0.252c-0.127,0.111-0.307,0.252-0.514,0.415
			c0.82-6.692,1.156-14.629,0.271-20.245c-0.116-0.726-0.622-1.318-1.309-1.539c-0.699-0.213-1.446-0.018-1.943,0.516
			c-0.43,0.453-0.806,0.875-1.147,1.266c0.368-9.187,0.734-21.016-0.927-28.563c-0.153-0.696-0.68-1.25-1.356-1.435
			c-0.687-0.195-1.41,0.031-1.892,0.557c-0.688,0.754-1.452,1.661-2.222,2.567c-0.152,0.172-0.298,0.351-0.452,0.53
			c-0.114-13.8-4.319-28.649-8.9-36.155c-0.35-0.57-0.951-0.894-1.621-0.905c-0.657-0.001-1.272,0.348-1.614,0.922
			c-0.672,1.115-1.425,2.318-2.125,3.399c-1.986-6.387-6.495-16.611-8.725-19.541c-0.457-0.602-1.216-0.871-1.945-0.694
			c-0.732,0.175-1.285,0.77-1.428,1.517c-0.21,1.163-0.5,2.141-0.854,3.099c-5.771-13.659-11.886-22.229-20.531-28.99
			c-0.595-0.459-1.39-0.533-2.045-0.177c-0.663,0.35-1.057,1.052-1.02,1.811c0.093,1.725-0.221,3.893-0.587,5.83
			c-4.53-5.782-8.685-9.396-15.579-14.721c-0.564-0.441-1.317-0.519-1.958-0.217c-0.646,0.308-1.064,0.956-1.092,1.673
			c-0.051,1.321-0.225,2.734-0.422,3.996c-5.558-5.846-16.153-13.033-19.213-14.468c-0.645-0.301-1.404-0.215-1.966,0.228
			c-0.56,0.448-0.834,1.166-0.708,1.875c0.642,3.498,0.983,6.698,1.006,8.959c-6.687-4.305-17.046-7.623-17.548-7.787
			c-0.666-0.207-1.398-0.032-1.9,0.466c-0.499,0.495-0.687,1.233-0.492,1.915c0.381,1.333,0.973,2.675,1.545,3.976
			c0.006,0.01,0.011,0.021,0.013,0.025c-8.911-4.693-16.623-5.383-20.199-5.716c-0.673-0.061-1.19-0.104-1.551-0.166
			c-0.769-0.133-1.547,0.222-1.952,0.91c-0.407,0.682-0.355,1.539,0.124,2.176c0.964,1.253,2.867,3.881,4.54,6.56
			c-3.179-1.348-6.203-1.765-9.504-2.217l-1.026-0.141c-0.741-0.102-1.457,0.235-1.856,0.869c-0.404,0.628-0.408,1.427-0.014,2.068
			l0.106,0.174c0.703,1.129,1.417,2.276,2.046,3.458c-6.928-1.724-16.074-0.52-24.655,3.428c-0.748,0.348-1.195,1.135-1.106,1.962
			C833.567,569.425,834.167,570.096,834.97,570.28z M854.073,614.437c-3.265-0.124-5.47-1.993-5.406-3.582
			c0.062-1.597,2.398-3.284,5.664-3.163c3.269,0.125,5.47,1.989,5.408,3.586C859.677,612.866,857.343,614.56,854.073,614.437z
			 M929.609,611.132c-0.673,8.679-6.306,13.67-15.073,13.336c-0.438-0.019-0.879-0.044-1.327-0.09
			c-9.551-0.937-12.354-10.025-12.212-14.276c0.11-3.281,1.435-6.215,3.841-8.49c2.825-2.673,6.911-4.114,11.19-3.948
			c0.763,0.026,1.543,0.103,2.305,0.235C924.175,598.883,930.141,604.219,929.609,611.132z M947.265,603.408
			c0.037,0.027,0.075,0.073,0.112,0.101c-4.142,2.938-10.011,4.528-14.016,5.438c-0.709-7.853-7.612-13.709-14.396-14.848
			c-6.221-1.043-12.53,0.738-16.723,4.699c-2.302,2.175-3.875,4.914-4.601,7.928c-2.549-1.459-5.222-2.043-8.357-1.873
			c0.241-3.319-0.48-6.477-1.5-8.564c-1.38-2.838-3.727-5.075-6.528-6.474C907.89,583.744,930.06,588.278,947.265,603.408z
			 M870.726,592.708c0.194-0.067,0.382-0.123,0.583-0.185c0.403-0.131,0.814-0.253,1.246-0.337
			c4.726-0.815,9.809,1.676,11.821,5.808c1.73,3.57,2.055,10.344-2.669,14.252c-0.053,0.042-0.069,0.104-0.114,0.141
			c-4.691-1.886-8.693-4.669-12.592-7.392c-1.565-1.098-3.184-2.188-4.82-3.242C865.007,597.207,867.31,594.013,870.726,592.708z"/>
		<path fill="#8AAAD9" d="M879.668,603.534c1.714,0.238,2.91,1.79,2.675,3.477c-0.231,1.685-1.805,2.857-3.519,2.621
			c-1.713-0.238-2.914-1.797-2.683-3.479C876.375,604.465,877.954,603.296,879.668,603.534"/>
		<path fill="#8AAAD9" d="M908.372,640.572c-1.343-0.182-2.271-1.439-2.085-2.793c0.188-1.354,1.425-2.311,2.765-2.123
			c1.335,0.185,2.269,1.44,2.08,2.795C910.945,639.803,909.705,640.756,908.372,640.572"/>
		<path fill="#8AAAD9" d="M898.219,633.014c-1.195-0.164-2.023-1.277-1.854-2.481c0.169-1.216,1.266-2.062,2.462-1.896
			c1.192,0.167,2.018,1.278,1.849,2.493C900.507,632.334,899.414,633.18,898.219,633.014"/>
		<path fill="#8AAAD9" d="M895.925,642.667c-0.156,1.124-1.183,1.913-2.293,1.76c-1.114-0.155-1.886-1.192-1.729-2.314
			c0.155-1.136,1.182-1.922,2.293-1.77C895.307,640.499,896.082,641.535,895.925,642.667"/>
		<path fill="#8AAAD9" d="M907.868,610.53c1.923,0.265,3.267,2.028,3.002,3.94c-0.264,1.906-2.034,3.232-3.959,2.967
			c-1.921-0.267-3.267-2.025-3.003-3.932C904.173,611.593,905.945,610.261,907.868,610.53"/>
		<path fill="#8AAAD9" d="M925.927,715.825c-11.067-24.868-27.365-29.75-40.376-31.187c-16.455-1.842-31.214,5.406-37.037,23.16
			c-0.33,1.003-1.729,6.787-1.729,6.787l-1.812,10.487l4.504-0.449c0,0,0.549-8.553,3.354-16.279
			c5.522-15.205,17.945-21.132,32.266-19.544c12.487,1.383,26.547,5.871,36.667,27.922l1.619,3.905
			c1.329-0.308,2.648-0.586,3.95-0.826l-0.302-0.97L925.927,715.825z"/>
	</g>
</g>
</svg>
